# xmcd
#
# Track frame offsets: 
#        150
#        22399
#        40287
#        59696
#        74369
#        91812
#        123908
#        143265
#        163353
#        180701
#        192670
#        207587
#        231723
#        246810
#        263051
#
# Disc length: 3763 seconds
#
# Revision: 1
# Processed by: cddbd v1.5.2PL0 Copyright (c) Steve Scherf et al.
# Submitted via: ExactAudioCopy v0.99pb4
#
DISCID=eb0eb10f
DTITLE=Various Artist - World Tour - Salsa Rhythm [CD1)
DYEAR=2008
DGENRE=Salsa
TTITLE0=Felix Baloy Y Su Cuban Son All Stars-Lo Otro Lo Pongo Yo
TTITLE1=Rubén Blades-Chilam Balam
TTITLE2=Pio Leyva-Pare Cochero
TTITLE3=Raul Planas-Quiereme Mucho Caridad
TTITLE4=Ruben Gonzales-Fabiando
TTITLE5=Angela Carrasco and Celia Cruz-La Candela
TTITLE6=Aris Martinez-Amigo
TTITLE7=Gabino Pampini-Me Recordaras
TTITLE8=Miramar-Salsa Boogaloo
TTITLE9=Tito Rodriguez-Abarriba Cumbiaremos
TTITLE10=Los Rigual-La Bomba
TTITLE11=Armando 'Pellejo' Grados-Se Parecio Tanto A Ti
TTITLE12=Arturo Muente-Visa Para Un Sueno
TTITLE13=José Antonio-Salsa Salsita
TTITLE14=Palo Alto-Racataplan
EXTD=YEAR: 2008
EXTT0=
EXTT1=
EXTT2=
EXTT3=
EXTT4=
EXTT5=
EXTT6=
EXTT7=
EXTT8=
EXTT9=
EXTT10=
EXTT11=
EXTT12=
EXTT13=
EXTT14=
PLAYORDER=
